<mxfile host="app.diagrams.net" modified="2023-06-27T17:13:00.133Z" agent="Mozilla/5.0 (Macintosh; Intel Mac OS X 10_15_7) AppleWebKit/537.36 (KHTML, like Gecko) Chrome/114.0.0.0 Safari/537.36" version="21.3.6" etag="2UPD-piZcvtPzn7ZaQA4" type="github">
  <diagram name="第 1 页" id="U4kiDjfi6eIoz5tzxtLc">
    <mxGraphModel>
      <root>
        <mxCell id="0" />
        <mxCell id="1" parent="0" />
      </root>
    </mxGraphModel>
  </diagram>
</mxfile>
